<svg width="688" height="220" viewBox="0 0 688 220" fill="none" xmlns="http://www.w3.org/2000/svg">
<path d="M137.27 61L79.58 80.2V11C79.58 8.08262 78.4211 5.28474 76.3582 3.22184C74.2953 1.15894 71.4974 3.56541e-06 68.58 3.56541e-06H16.88C12.4351 -0.00288426 8.16863 1.74859 5.00786 4.87378C1.84709 7.99898 0.0474256 12.2453 0 16.69C0.026427 21.0664 1.78416 25.2543 4.88907 28.3386C7.99397 31.4229 12.1936 33.1527 16.57 33.15H35.66C38.5111 33.15 41.2454 34.2826 43.2614 36.2986C45.2774 38.3146 46.41 41.0489 46.41 43.9V112.78C46.41 148.99 75.22 178.95 111.41 179.64C120.224 179.814 128.985 178.228 137.179 174.975C145.373 171.721 152.836 166.866 159.13 160.693C165.424 154.52 170.423 147.153 173.835 139.024C177.247 130.894 179.003 122.166 179 113.35V91.05C178.992 86.0299 177.793 81.0833 175.501 76.617C173.209 72.1507 169.89 68.2921 165.816 65.3586C161.742 62.425 157.03 60.5002 152.068 59.7425C147.105 58.9848 142.034 59.4158 137.27 61ZM92.06 139.29C85.1933 133.829 80.7734 125.866 79.77 117.15C79.651 116.097 79.8969 115.035 80.4666 114.141C81.0362 113.248 81.8952 112.577 82.9 112.24L86.74 110.96C87.35 110.755 88 110.698 88.6362 110.795C89.2725 110.891 89.8766 111.138 90.3986 111.514C90.9205 111.89 91.3453 112.385 91.6377 112.959C91.9301 113.532 92.0817 114.167 92.08 114.81V139.27C92.08 139.27 92.07 139.29 92.06 139.29ZM110.3 146.42C106.289 146.137 102.364 145.12 98.72 143.42V112.92C98.7214 111.187 99.2678 109.499 100.282 108.093C101.296 106.688 102.726 105.638 104.37 105.09C105.053 104.853 105.782 104.784 106.497 104.887C107.212 104.991 107.891 105.264 108.479 105.684C109.067 106.104 109.545 106.659 109.874 107.302C110.203 107.945 110.373 108.658 110.37 109.38V146.38L110.3 146.42ZM116.95 146.21V106.21C116.946 104.667 117.426 103.161 118.323 101.905C119.22 100.649 120.489 99.7063 121.95 99.21C122.701 98.9617 123.5 98.895 124.281 99.0154C125.062 99.1357 125.804 99.4396 126.445 99.9023C127.087 100.365 127.609 100.973 127.97 101.677C128.33 102.38 128.519 103.159 128.52 103.95V142.44C124.935 144.425 121.005 145.711 116.94 146.23C116.94 146.23 116.95 146.22 116.95 146.21ZM145.86 113C145.863 117.616 144.918 122.184 143.084 126.421C141.251 130.657 138.567 134.472 135.2 137.63V98.76C135.201 97.6109 135.562 96.4909 136.233 95.558C136.904 94.6251 137.851 93.9263 138.94 93.56C139.732 93.2976 140.576 93.2267 141.401 93.3533C142.226 93.4799 143.009 93.8004 143.686 94.2883C144.364 94.7762 144.916 95.4178 145.297 96.1603C145.678 96.9029 145.878 97.7253 145.88 98.56L145.86 113Z" fill="white"/>
<path d="M145.12 219.44C154.277 219.44 161.7 212.017 161.7 202.86C161.7 193.703 154.277 186.28 145.12 186.28C135.963 186.28 128.54 193.703 128.54 202.86C128.54 212.017 135.963 219.44 145.12 219.44Z" fill="white"/>
<path d="M95.4 219.44C104.557 219.44 111.98 212.017 111.98 202.86C111.98 193.703 104.557 186.28 95.4 186.28C86.2431 186.28 78.82 193.703 78.82 202.86C78.82 212.017 86.2431 219.44 95.4 219.44Z" fill="white"/>
<path d="M210.15 93.1C210.103 89.5079 211.438 86.035 213.88 83.4C215.037 82.0754 216.47 81.0202 218.079 80.3085C219.687 79.5967 221.432 79.2457 223.19 79.28C224.926 79.2567 226.647 79.6134 228.231 80.3251C229.815 81.0368 231.224 82.0863 232.36 83.4C234.755 86.0652 236.08 89.5218 236.08 93.105C236.08 96.6882 234.755 100.145 232.36 102.81C231.224 104.122 229.814 105.17 228.23 105.88C226.646 106.59 224.926 106.945 223.19 106.92C221.432 106.959 219.687 106.611 218.078 105.901C216.469 105.191 215.036 104.135 213.88 102.81C211.436 100.172 210.1 96.6956 210.15 93.1ZM210.15 126.64C210.128 123.073 211.461 119.631 213.88 117.01C215.028 115.67 216.458 114.6 218.067 113.876C219.676 113.151 221.426 112.791 223.19 112.82C224.932 112.797 226.658 113.16 228.243 113.883C229.829 114.605 231.235 115.67 232.36 117C234.753 119.65 236.078 123.094 236.078 126.665C236.078 130.236 234.753 133.68 232.36 136.33C231.226 137.645 229.817 138.696 228.232 139.408C226.648 140.12 224.927 140.475 223.19 140.45C221.431 140.488 219.685 140.138 218.076 139.426C216.468 138.714 215.035 137.657 213.88 136.33C211.435 133.701 210.099 130.23 210.15 126.64ZM326.3 85.8C326.3 93.8 323.607 101.41 318.22 108.63C323.6 115.77 326.293 124.413 326.3 134.56C326.3 143.46 323.09 151.793 316.67 159.56C309.937 167.74 302.173 171.827 293.38 171.82H220.71C218.043 171.82 215.663 170.277 213.57 167.19C211.714 164.801 210.664 161.884 210.57 158.86C210.57 156.08 211.707 153.173 213.98 150.14C216.253 147.107 218.74 145.587 221.44 145.58H294.1C296.1 145.58 298.1 144.34 300.24 141.86C302.38 139.38 303.42 137.15 303.42 135.18C303.259 132.435 302.315 129.795 300.7 127.57C298.893 124.777 296.893 123.277 294.7 123.07H248.66C245.993 123.07 243.613 121.517 241.52 118.41C239.663 115.945 238.63 112.956 238.57 109.87C238.57 107.203 239.707 104.307 241.98 101.18C244.253 98.0533 246.74 96.5 249.44 96.52H294C296.07 96.52 298.16 95.28 300.29 92.79C302.42 90.3 303.47 88.13 303.47 86.27C303.311 83.5363 302.336 80.9132 300.67 78.74C298.81 76 296.79 74.62 294.62 74.62H223.97C231.97 73.6933 235.97 69.36 235.97 61.62C235.97 54.38 231.673 49.7133 223.08 47.62H293.83C303.89 47.62 311.977 51.5533 318.09 59.42C323.563 66.6667 326.3 75.46 326.3 85.8Z" fill="white"/>
<path d="M340.27 59.25C340.219 57.5693 340.575 55.9012 341.308 54.3879C342.041 52.8747 343.129 51.5613 344.48 50.56C347.122 48.5444 350.379 47.5024 353.7 47.61C357.209 47.5308 360.634 48.6844 363.38 50.87C364.695 51.8994 365.748 53.2249 366.454 54.7385C367.159 56.2521 367.497 57.911 367.44 59.58V132.52C367.362 134.349 367.73 136.169 368.515 137.822C369.299 139.476 370.475 140.914 371.94 142.01C374.607 144.01 378.077 145.01 382.35 145.01H403.35C406.859 145.057 410.25 143.749 412.82 141.36C414.099 140.254 415.119 138.882 415.811 137.339C416.502 135.796 416.846 134.12 416.82 132.43V60C418.473 68.4933 423.14 72.7367 430.82 72.73C438.153 72.73 442.603 68.6933 444.17 60.62V131.89C444.17 158.49 429.783 171.79 401.01 171.79H381.57C370.49 171.79 361.02 168.687 353.16 162.48C344.56 155.747 340.263 147 340.27 136.24V59.25Z" fill="white"/>
<path d="M492.43 171.82C481.763 171.82 473.07 167.577 466.35 159.09C460.137 151.23 457.03 141.76 457.03 130.68V48.07C458.577 56.15 462.977 60.1867 470.23 60.18C477.99 60.18 482.7 55.99 484.36 47.61V129.61C484.214 133.352 485.246 137.046 487.31 140.17C488.311 141.722 489.701 142.984 491.341 143.831C492.982 144.679 494.815 145.082 496.66 145H545.66C547.322 144.94 548.975 145.271 550.485 145.966C551.996 146.661 553.323 147.7 554.36 149C556.448 151.693 557.594 154.997 557.621 158.405C557.648 161.812 556.555 165.134 554.51 167.86C553.51 169.161 552.213 170.203 550.727 170.899C549.241 171.595 547.61 171.925 545.97 171.86L492.43 171.82Z" fill="white"/>
<path d="M595.66 74.16C593.961 74.0694 592.264 74.385 590.711 75.0806C589.159 75.7762 587.794 76.8318 586.73 78.16C584.551 80.9944 583.424 84.497 583.54 88.07V132C583.52 135.354 584.77 138.591 587.04 141.06C588.086 142.329 589.404 143.347 590.896 144.039C592.388 144.731 594.016 145.08 595.66 145.06H659.94C651.753 146.553 647.66 151.077 647.66 158.63C647.66 165.463 651.75 169.653 659.93 171.2L596.11 171.51C570.443 171.51 557.607 157.59 557.6 129.75V87.51C557.6 76.75 560.6 67.59 566.6 60.03C573.12 51.75 581.557 47.61 591.91 47.61H653.4C663.753 47.61 672.187 51.8533 678.7 60.34C684.847 68.1133 687.92 77.3333 687.92 88V142.5C686.46 134.833 682.24 131 675.26 131C667.873 131 663.397 135 661.83 143V88.63C661.918 84.9637 660.769 81.3746 658.57 78.44C657.53 77.0499 656.167 75.9339 654.599 75.1882C653.031 74.4426 651.305 74.0897 649.57 74.16H595.66ZM662.89 158.63C662.852 162.066 664.162 165.379 666.54 167.86C667.645 169.105 669.002 170.102 670.52 170.784C672.039 171.467 673.685 171.82 675.35 171.82C677.015 171.82 678.661 171.467 680.18 170.784C681.698 170.102 683.055 169.105 684.16 167.86C686.457 165.333 687.73 162.04 687.73 158.625C687.73 155.21 686.457 151.917 684.16 149.39C683.055 148.145 681.698 147.148 680.18 146.466C678.661 145.783 677.015 145.43 675.35 145.43C673.685 145.43 672.039 145.783 670.52 146.466C669.002 147.148 667.645 148.145 666.54 149.39C664.176 151.881 662.877 155.196 662.92 158.63H662.89Z" fill="white"/>
</svg>
