<svg width="145" height="47" viewBox="0 0 145 47" fill="none" xmlns="http://www.w3.org/2000/svg">
<path d="M28.8298 12.8114L16.7136 16.8438V2.31025C16.7136 1.69753 16.4702 1.10991 16.0369 0.676658C15.6037 0.243403 15.0161 7.48816e-07 14.4033 7.48816e-07H3.54518C2.61165 -0.000605759 1.7156 0.367243 1.05176 1.0236C0.38793 1.67997 0.00996044 2.5718 0 3.50528C0.00555026 4.42441 0.374715 5.30398 1.02681 5.95175C1.67891 6.59952 2.56092 6.96282 3.48007 6.96224H7.4894C8.08819 6.96224 8.66246 7.20012 9.08587 7.62353C9.50927 8.04693 9.74714 8.6212 9.74714 9.21999V23.6863C9.74714 31.2913 15.7979 37.5835 23.3986 37.7284C25.2498 37.765 27.0898 37.4319 28.8107 36.7487C30.5316 36.0654 32.0989 35.0456 33.4208 33.7491C34.7428 32.4526 35.7927 30.9054 36.5093 29.1981C37.2259 27.4908 37.5947 25.6576 37.594 23.806V19.1225C37.5924 18.0682 37.3405 17.0293 36.8592 16.0913C36.3778 15.1533 35.6807 14.3429 34.8251 13.7268C33.9695 13.1107 32.9799 12.7064 31.9376 12.5473C30.8954 12.3881 29.8302 12.4787 28.8298 12.8114ZM19.3347 29.254C17.8925 28.107 16.9642 26.4347 16.7535 24.6041C16.7285 24.383 16.7801 24.1599 16.8998 23.9722C17.0194 23.7846 17.1998 23.6436 17.4109 23.5729L18.2174 23.3041C18.3455 23.2611 18.482 23.2491 18.6156 23.2694C18.7492 23.2896 18.8761 23.3414 18.9857 23.4204C19.0954 23.4995 19.1846 23.6035 19.246 23.7239C19.3074 23.8442 19.3392 23.9775 19.3389 24.1127V29.2498C19.3389 29.2498 19.3368 29.254 19.3347 29.254ZM23.1655 30.7515C22.3231 30.692 21.4987 30.4785 20.7334 30.1214V23.7157C20.7337 23.3518 20.8485 22.9972 21.0614 22.7021C21.2744 22.4069 21.5748 22.1863 21.92 22.0713C22.0634 22.0216 22.2166 22.007 22.3667 22.0287C22.5169 22.0504 22.6596 22.1078 22.783 22.196C22.9064 22.2843 23.0069 22.4008 23.076 22.5358C23.1451 22.6709 23.1808 22.8206 23.1802 22.9723V30.7431L23.1655 30.7515ZM24.5621 30.7074V22.3065C24.5612 21.9823 24.662 21.6661 24.8504 21.4023C25.0388 21.1385 25.3053 20.9406 25.6122 20.8363C25.7699 20.7842 25.9377 20.7702 26.1018 20.7955C26.2659 20.8207 26.4217 20.8846 26.5564 20.9817C26.6911 21.0789 26.8008 21.2066 26.8765 21.3544C26.9522 21.5021 26.9918 21.6658 26.9921 21.8318V29.9156C26.2391 30.3325 25.4138 30.6026 24.56 30.7116C24.56 30.7116 24.5621 30.7095 24.5621 30.7074ZM30.6339 23.7325C30.6344 24.7021 30.436 25.6614 30.0509 26.5512C29.6658 27.4409 29.1022 28.2422 28.395 28.9054V20.7418C28.3952 20.5005 28.4711 20.2653 28.612 20.0693C28.7529 19.8734 28.9518 19.7266 29.1805 19.6497C29.3469 19.5946 29.5241 19.5797 29.6973 19.6063C29.8706 19.6329 30.0351 19.7002 30.1774 19.8027C30.3196 19.9051 30.4355 20.0399 30.5156 20.1958C30.5957 20.3518 30.6377 20.5245 30.6381 20.6998L30.6339 23.7325Z" fill="#003E4D"/>
<path d="M30.4783 46.0873C32.4014 46.0873 33.9604 44.5283 33.9604 42.6051C33.9604 40.682 32.4014 39.123 30.4783 39.123C28.5551 39.123 26.9961 40.682 26.9961 42.6051C26.9961 44.5283 28.5551 46.0873 30.4783 46.0873Z" fill="#003E4D"/>
<path d="M20.0408 46.0873C21.9639 46.0873 23.5229 44.5283 23.5229 42.6051C23.5229 40.682 21.9639 39.123 20.0408 39.123C18.1176 39.123 16.5586 40.682 16.5586 42.6051C16.5586 44.5283 18.1176 46.0873 20.0408 46.0873Z" fill="#003E4D"/>
<path d="M44.1331 19.5531C44.1232 18.7987 44.4037 18.0693 44.9165 17.5159C45.1595 17.2377 45.4605 17.0161 45.7983 16.8666C46.1361 16.7171 46.5025 16.6434 46.8718 16.6506C47.2365 16.6457 47.5978 16.7206 47.9305 16.8701C48.2632 17.0196 48.5592 17.24 48.7977 17.5159C49.3007 18.0756 49.579 18.8016 49.579 19.5542C49.579 20.3067 49.3007 21.0327 48.7977 21.5924C48.5591 21.8681 48.263 22.0882 47.9303 22.2373C47.5976 22.3864 47.2363 22.4609 46.8718 22.4556C46.5025 22.4638 46.136 22.3907 45.7981 22.2416C45.4602 22.0924 45.1592 21.8708 44.9165 21.5924C44.4032 21.0385 44.1226 20.3083 44.1331 19.5531ZM44.1331 26.5973C44.1284 25.8482 44.4084 25.1252 44.9165 24.5747C45.1577 24.2933 45.4579 24.0685 45.7959 23.9164C46.1339 23.7643 46.5012 23.6886 46.8718 23.6947C47.2377 23.69 47.6001 23.7662 47.9331 23.9179C48.2661 24.0697 48.5613 24.2933 48.7977 24.5726C49.3004 25.1292 49.5787 25.8525 49.5787 26.6025C49.5787 27.3525 49.3004 28.0758 48.7977 28.6324C48.5595 28.9086 48.2635 29.1293 47.9308 29.2788C47.598 29.4283 47.2366 29.503 46.8718 29.4977C46.5024 29.5056 46.1357 29.4322 45.7978 29.2827C45.4599 29.1331 45.1591 28.9111 44.9165 28.6324C44.403 28.0802 44.1224 27.3512 44.1331 26.5973ZM68.5272 18.0199C68.5272 19.7001 67.9616 21.2984 66.8302 22.8148C67.9602 24.3143 68.5258 26.1296 68.5272 28.2606C68.5272 30.1298 67.8531 31.88 66.5047 33.5112C65.0906 35.2292 63.4601 36.0875 61.6133 36.0861H46.3509C45.7909 36.0861 45.291 35.7619 44.8514 35.1137C44.4616 34.6118 44.241 33.9993 44.2213 33.3642C44.2213 32.7803 44.46 32.1699 44.9375 31.5328C45.4149 30.8957 45.9372 30.5765 46.5043 30.5751H61.7645C62.1845 30.5751 62.6046 30.3147 63.054 29.7938C63.5035 29.2729 63.7219 28.8046 63.7219 28.3909C63.6882 27.8144 63.4899 27.2598 63.1506 26.7926C62.7712 26.2059 62.3512 25.8909 61.8905 25.8475H52.2211C51.661 25.8475 51.1612 25.5212 50.7215 24.8688C50.3314 24.351 50.1146 23.7233 50.1019 23.0752C50.1019 22.5151 50.3407 21.9068 50.8181 21.2501C51.2956 20.5934 51.8178 20.2672 52.3849 20.2714H61.7435C62.1782 20.2714 62.6172 20.011 63.0645 19.488C63.5119 18.965 63.7324 18.5093 63.7324 18.1186C63.6991 17.5445 63.4942 16.9936 63.1443 16.5372C62.7537 15.9617 62.3295 15.6719 61.8737 15.6719H47.0356C48.7158 15.4773 49.5559 14.5672 49.5559 12.9416C49.5559 11.421 48.6535 10.4409 46.8487 10.0013H61.7078C63.8206 10.0013 65.519 10.8274 66.8029 12.4796C67.9525 14.0015 68.5272 15.8483 68.5272 18.0199Z" fill="#003E4D"/>
<path d="M71.462 12.4438C71.4512 12.0908 71.5259 11.7405 71.6799 11.4227C71.8339 11.1049 72.0625 10.829 72.3462 10.6187C72.901 10.1954 73.585 9.97654 74.2826 9.99915C75.0195 9.98251 75.7389 10.2248 76.3156 10.6838C76.5918 10.9 76.813 11.1784 76.9611 11.4963C77.1093 11.8142 77.1803 12.1626 77.1683 12.5131V27.8322C77.1518 28.2162 77.2293 28.5985 77.394 28.9458C77.5587 29.2931 77.8056 29.595 78.1134 29.8253C78.6734 30.2453 79.4022 30.4553 80.2997 30.4553H84.7102C85.4471 30.4652 86.1594 30.1906 86.6991 29.6888C86.9676 29.4565 87.182 29.1682 87.3272 28.8442C87.4723 28.5202 87.5447 28.1683 87.5392 27.8133V12.6013C87.8864 14.3851 88.8665 15.2763 90.4795 15.2749C92.0197 15.2749 92.9543 14.4271 93.2833 12.7315V27.6999C93.2833 33.2864 90.2618 36.0797 84.2187 36.0797H80.1359C77.8088 36.0797 75.8199 35.428 74.1692 34.1244C72.363 32.7103 71.4606 30.8733 71.462 28.6134V12.4438Z" fill="#003E4D"/>
<path d="M103.423 36.086C101.183 36.086 99.357 35.1949 97.9457 33.4125C96.6408 31.7617 95.9883 29.7728 95.9883 27.4457V10.0958C96.3131 11.7927 97.2372 12.6405 98.7606 12.6391C100.39 12.6391 101.38 11.7591 101.728 9.99915V27.221C101.698 28.0069 101.914 28.7826 102.348 29.4388C102.558 29.7647 102.85 30.0298 103.194 30.2078C103.539 30.3858 103.924 30.4704 104.311 30.4532H114.603C114.952 30.4407 115.299 30.5102 115.616 30.6561C115.933 30.802 116.212 31.0203 116.43 31.2933C116.868 31.8589 117.109 32.5529 117.115 33.2685C117.12 33.9842 116.891 34.6819 116.461 35.2544C116.251 35.5276 115.979 35.7465 115.667 35.8927C115.355 36.0388 115.012 36.108 114.668 36.0944L103.423 36.086Z" fill="#003E4D"/>
<path d="M125.099 15.5752C124.742 15.5562 124.386 15.6225 124.06 15.7686C123.733 15.9147 123.447 16.1364 123.223 16.4153C122.766 17.0106 122.529 17.7462 122.553 18.4967V27.7229C122.549 28.4273 122.812 29.1072 123.289 29.6257C123.508 29.8922 123.785 30.106 124.098 30.2514C124.412 30.3968 124.754 30.47 125.099 30.4658H138.599C136.88 30.7795 136.02 31.7295 136.02 33.3158C136.02 34.751 136.879 35.631 138.597 35.9558L125.193 36.0209C119.803 36.0209 117.107 33.0974 117.105 27.2504V18.379C117.105 16.1192 117.736 14.1954 118.996 12.6076C120.365 10.8686 122.137 9.99915 124.311 9.99915H137.226C139.4 9.99915 141.171 10.8903 142.539 12.6727C143.83 14.3053 144.476 16.2417 144.476 18.482V29.9282C144.169 28.318 143.283 27.5129 141.817 27.5129C140.265 27.5129 139.325 28.353 138.996 30.0332V18.6143C139.015 17.8443 138.773 17.0905 138.311 16.4741C138.093 16.1822 137.807 15.9478 137.477 15.7912C137.148 15.6346 136.786 15.5605 136.421 15.5752H125.099ZM139.219 33.3158C139.211 34.0374 139.486 34.7334 139.985 35.2543C140.217 35.5159 140.502 35.7252 140.821 35.8686C141.14 36.0119 141.486 36.086 141.836 36.086C142.185 36.086 142.531 36.0119 142.85 35.8686C143.169 35.7252 143.454 35.5159 143.686 35.2543C144.168 34.7236 144.436 34.0321 144.436 33.3148C144.436 32.5975 144.168 31.906 143.686 31.3752C143.454 31.1137 143.169 30.9044 142.85 30.761C142.531 30.6177 142.185 30.5435 141.836 30.5435C141.486 30.5435 141.14 30.6177 140.821 30.761C140.502 30.9044 140.217 31.1137 139.985 31.3752C139.489 31.8984 139.216 32.5946 139.225 33.3158H139.219Z" fill="#003E4D"/>
</svg>
