<svg width="52" height="63" viewBox="0 0 52 63" fill="none" xmlns="http://www.w3.org/2000/svg">
<path d="M39.1203 17.3738L22.6783 22.8539V3.14479C22.678 2.731 22.5962 2.32132 22.4374 1.93921C22.2787 1.5571 22.0461 1.21005 21.753 0.917938C21.4599 0.625828 21.1121 0.394392 20.7295 0.23688C20.3469 0.0793688 19.9369 -0.00112069 19.5231 1.17861e-05H4.81192C2.19586 1.17861e-05 -0.0102972 2.13901 3.61535e-05 4.75506C0.00822459 6.00242 0.5096 7.19588 1.3947 8.07485C2.27979 8.95381 3.4767 9.44688 4.72409 9.4464H10.1611C10.9742 9.4464 11.7539 9.76937 12.3288 10.3443C12.9037 10.9192 13.2267 11.6989 13.2267 12.512V32.1453C13.2267 42.4631 21.4365 51.0036 31.7526 51.2C34.2652 51.2492 36.7623 50.7967 39.0977 49.8688C41.4332 48.941 43.56 47.5566 45.3537 45.7965C47.1474 44.0365 48.572 41.9362 49.5439 39.6188C50.5158 37.3014 51.0156 34.8133 51.014 32.3003V25.947C51.0144 24.515 50.6745 23.1035 50.0222 21.8287C49.3699 20.5539 48.4239 19.4525 47.2622 18.6151C46.1006 17.7778 44.7566 17.2286 43.341 17.0128C41.9253 16.7969 40.4787 16.9207 39.1203 17.3738ZM26.2398 39.6938C24.2832 38.138 23.0244 35.8689 22.7403 33.3853C22.7057 33.0852 22.7752 32.7823 22.9373 32.5274C23.0994 32.2725 23.3442 32.0811 23.6306 31.9851L24.726 31.6217C24.8997 31.5639 25.0847 31.5481 25.2658 31.5758C25.4468 31.6035 25.6187 31.6738 25.7672 31.781C25.9157 31.8881 26.0366 32.029 26.12 32.1921C26.2034 32.3551 26.2468 32.5357 26.2467 32.7188V39.6903C26.2467 39.6903 26.2398 39.6955 26.2398 39.6938ZM31.4392 41.726C30.2959 41.6431 29.1775 41.3512 28.1394 40.8649V32.1797C28.1383 31.6846 28.2933 31.2018 28.5824 30.7998C28.8715 30.3979 29.28 30.0973 29.7497 29.9408C29.9434 29.8761 30.1498 29.8584 30.3518 29.8891C30.5537 29.9199 30.7454 29.9982 30.9111 30.1177C31.0768 30.2371 31.2118 30.3942 31.3048 30.5761C31.3978 30.758 31.4462 30.9594 31.4461 31.1636V41.7208C31.4461 41.7208 31.4358 41.726 31.434 41.726H31.4392ZM33.3336 41.6675V30.2629C33.3338 29.8227 33.4725 29.3938 33.73 29.0368C33.9874 28.6798 34.3507 28.4129 34.7683 28.2737C34.9821 28.2025 35.2099 28.1831 35.4327 28.2172C35.6555 28.2512 35.8671 28.3378 36.0499 28.4696C36.2327 28.6015 36.3816 28.7749 36.4843 28.9756C36.5869 29.1763 36.6404 29.3985 36.6403 29.624V40.5876C35.6186 41.1534 34.4989 41.5204 33.3405 41.6692L33.3268 41.6675H33.3336ZM41.5745 32.1952C41.5754 33.5105 41.3064 34.812 40.7841 36.0191C40.2619 37.2263 39.4975 38.3134 38.5382 39.2133V28.1566C38.5382 27.8287 38.6414 27.5091 38.833 27.243C39.0246 26.9769 39.295 26.7778 39.606 26.6738C39.83 26.6017 40.0678 26.5833 40.3002 26.62C40.5326 26.6567 40.7532 26.7475 40.944 26.8851C41.1349 27.0227 41.2908 27.2032 41.3991 27.4121C41.5074 27.621 41.5651 27.8524 41.5676 28.0877L41.5745 32.1952Z" fill="#008080"/>
<path d="M41.3569 62.5339C43.9659 62.5339 46.0809 60.4189 46.0809 57.8099C46.0809 55.2008 43.9659 53.0858 41.3569 53.0858C38.7479 53.0858 36.6328 55.2008 36.6328 57.8099C36.6328 60.4189 38.7479 62.5339 41.3569 62.5339Z" fill="#008080"/>
<path d="M27.1889 62.5339C29.7979 62.5339 31.913 60.4189 31.913 57.8099C31.913 55.2008 29.7979 53.0858 27.1889 53.0858C24.5799 53.0858 22.4648 55.2008 22.4648 57.8099C22.4648 60.4189 24.5799 62.5339 27.1889 62.5339Z" fill="#008080"/>
</svg>
